<svg width="50" height="49" viewBox="0 0 38 37" fill="none" xmlns="http://www.w3.org/2000/svg">
<path d="M37.5 18.5C37.5 28.4286 29.2299 36.5 19 36.5C8.77008 36.5 0.5 28.4286 0.5 18.5C0.5 8.57136 8.77008 0.5 19 0.5C29.2299 0.5 37.5 8.57136 37.5 18.5Z" stroke="#515151"/>
<path d="M18.9168 8C16.4647 8 14.4584 10.0033 14.4584 12.4717C14.4584 14.9401 16.4647 16.9434 18.9168 16.9434C21.369 16.9434 23.3753 14.9401 23.3753 12.4717C23.3753 10.0033 21.369 8 18.9168 8ZM14.2578 16.9434C11.8948 17.0329 10 18.589 10 20.5208V22.3095H27.8337V20.5208C27.8337 18.589 25.9611 17.0329 23.5759 16.9434C22.3721 18.0345 20.7225 18.7321 18.9168 18.7321C17.1112 18.7321 15.4616 18.0345 14.2578 16.9434Z" fill="#999999"/>
<path d="M9.93217 23.9091V29H9.62891V23.9091H9.93217ZM12.6069 29.0795C12.292 29.0795 12.012 28.995 11.7667 28.826C11.5214 28.6553 11.3284 28.4208 11.1875 28.1225C11.0466 27.8242 10.9762 27.4845 10.9762 27.1033C10.9762 26.7205 11.0466 26.3808 11.1875 26.0842C11.3284 25.7859 11.5214 25.5514 11.7667 25.3807C12.012 25.21 12.292 25.1246 12.6069 25.1246C12.9218 25.1246 13.2018 25.21 13.4471 25.3807C13.6924 25.5514 13.8854 25.7859 14.0263 26.0842C14.1671 26.3825 14.2376 26.7222 14.2376 27.1033C14.2376 27.4845 14.1671 27.8242 14.0263 28.1225C13.8854 28.4208 13.6924 28.6553 13.4471 28.826C13.2018 28.995 12.9218 29.0795 12.6069 29.0795ZM12.6069 28.7987C12.8737 28.7987 13.1065 28.7232 13.3054 28.5724C13.5059 28.4216 13.6609 28.2178 13.7702 27.9609C13.8813 27.7041 13.9368 27.4182 13.9368 27.1033C13.9368 26.7885 13.8813 26.5034 13.7702 26.2482C13.6592 25.9914 13.5043 25.7875 13.3054 25.6367C13.1065 25.4843 12.8737 25.408 12.6069 25.408C12.3401 25.408 12.1072 25.4843 11.9084 25.6367C11.7095 25.7875 11.5546 25.9914 11.4435 26.2482C11.3325 26.5034 11.277 26.7885 11.277 27.1033C11.277 27.4182 11.3317 27.7041 11.4411 27.9609C11.5521 28.2178 11.707 28.4216 11.9059 28.5724C12.1064 28.7232 12.3401 28.7987 12.6069 28.7987ZM16.6594 30.5114C16.4224 30.5114 16.2094 30.4799 16.0205 30.4169C15.8316 30.3556 15.6708 30.2678 15.5383 30.1534C15.4073 30.0391 15.3071 29.9032 15.2375 29.7457L15.491 29.5966C15.5474 29.7192 15.6278 29.8286 15.7322 29.9247C15.8366 30.0208 15.9658 30.0962 16.1199 30.1509C16.2757 30.2056 16.4555 30.233 16.6594 30.233C17.0273 30.233 17.3181 30.1377 17.5319 29.9471C17.7473 29.7582 17.855 29.4682 17.855 29.0771V28.1275H17.8252C17.7672 28.2932 17.681 28.4407 17.5667 28.57C17.454 28.6976 17.3156 28.7978 17.1515 28.8707C16.9875 28.9437 16.801 28.9801 16.5922 28.9801C16.2906 28.9801 16.0255 28.9022 15.7968 28.7464C15.5681 28.5907 15.3899 28.3719 15.2623 28.0902C15.1347 27.8068 15.0709 27.4737 15.0709 27.0909C15.0709 26.7081 15.1331 26.3692 15.2574 26.0742C15.3833 25.7776 15.5606 25.5456 15.7893 25.3782C16.018 25.2092 16.2865 25.1246 16.5947 25.1246C16.8151 25.1246 17.0057 25.1669 17.1665 25.2514C17.3289 25.3343 17.4648 25.4445 17.5741 25.582C17.6835 25.7196 17.768 25.8704 17.8277 26.0344H17.8625V25.1818H18.1558V29.0895C18.1558 29.4077 18.0928 29.672 17.9669 29.8825C17.8426 30.0929 17.6678 30.2504 17.4424 30.3548C17.2187 30.4592 16.9577 30.5114 16.6594 30.5114ZM16.6196 28.6992C16.8748 28.6992 17.0944 28.6346 17.2783 28.5053C17.4639 28.3744 17.6064 28.1888 17.7059 27.9485C17.807 27.7066 17.8575 27.4199 17.8575 27.0884C17.8575 26.7669 17.8086 26.4794 17.7108 26.2259C17.6131 25.9723 17.4714 25.7726 17.2858 25.6268C17.1002 25.4809 16.8781 25.408 16.6196 25.408C16.3561 25.408 16.1315 25.4826 15.9459 25.6317C15.7603 25.7792 15.6178 25.9798 15.5184 26.2333C15.4206 26.4869 15.3717 26.7719 15.3717 27.0884C15.3717 27.4066 15.4214 27.6867 15.5209 27.9286C15.6203 28.1689 15.7628 28.3578 15.9484 28.4954C16.134 28.6313 16.3577 28.6992 16.6196 28.6992ZM20.851 29.0795C20.5362 29.0795 20.2561 28.995 20.0108 28.826C19.7656 28.6553 19.5725 28.4208 19.4316 28.1225C19.2908 27.8242 19.2203 27.4845 19.2203 27.1033C19.2203 26.7205 19.2908 26.3808 19.4316 26.0842C19.5725 25.7859 19.7656 25.5514 20.0108 25.3807C20.2561 25.21 20.5362 25.1246 20.851 25.1246C21.1659 25.1246 21.446 25.21 21.6912 25.3807C21.9365 25.5514 22.1296 25.7859 22.2704 26.0842C22.4113 26.3825 22.4817 26.7222 22.4817 27.1033C22.4817 27.4845 22.4113 27.8242 22.2704 28.1225C22.1296 28.4208 21.9365 28.6553 21.6912 28.826C21.446 28.995 21.1659 29.0795 20.851 29.0795ZM20.851 28.7987C21.1178 28.7987 21.3507 28.7232 21.5495 28.5724C21.7501 28.4216 21.905 28.2178 22.0144 27.9609C22.1254 27.7041 22.1809 27.4182 22.1809 27.1033C22.1809 26.7885 22.1254 26.5034 22.0144 26.2482C21.9034 25.9914 21.7484 25.7875 21.5495 25.6367C21.3507 25.4843 21.1178 25.408 20.851 25.408C20.5842 25.408 20.3514 25.4843 20.1525 25.6367C19.9537 25.7875 19.7987 25.9914 19.6877 26.2482C19.5766 26.5034 19.5211 26.7885 19.5211 27.1033C19.5211 27.4182 19.5758 27.7041 19.6852 27.9609C19.7962 28.2178 19.9512 28.4216 20.15 28.5724C20.3506 28.7232 20.5842 28.7987 20.851 28.7987ZM25.9724 27.6452V25.1818H26.2757V29H25.9724V28.381H25.9475C25.858 28.5782 25.713 28.739 25.5125 28.8633C25.3137 28.9876 25.0783 29.0497 24.8066 29.0497C24.5563 29.0497 24.3351 28.995 24.1428 28.8857C23.9506 28.7763 23.7998 28.6213 23.6904 28.4208C23.5811 28.2186 23.5264 27.9783 23.5264 27.6999V25.1818H23.8296V27.6875C23.8296 28.0057 23.9258 28.2634 24.118 28.4606C24.3119 28.6561 24.5621 28.7539 24.8687 28.7539C25.0676 28.7539 25.2507 28.7092 25.4181 28.6197C25.5854 28.5302 25.7197 28.4026 25.8208 28.2369C25.9218 28.0695 25.9724 27.8723 25.9724 27.6452ZM28.882 25.1818V25.4528H27.214V25.1818H28.882ZM27.7783 24.267H28.0791V28.0977C28.0791 28.2534 28.1089 28.381 28.1686 28.4805C28.2299 28.5782 28.3095 28.6512 28.4072 28.6992C28.5067 28.7456 28.6127 28.7688 28.7254 28.7688C28.7801 28.7688 28.8273 28.7647 28.8671 28.7564C28.9085 28.7481 28.9475 28.7373 28.9839 28.7241L29.0585 29C29.0121 29.0166 28.9607 29.0307 28.9044 29.0423C28.848 29.0555 28.7818 29.0621 28.7055 29.0621C28.5464 29.0621 28.3956 29.0265 28.2531 28.9553C28.1122 28.884 27.9979 28.7804 27.9101 28.6445C27.8222 28.5086 27.7783 28.3446 27.7783 28.1523V24.267Z" fill="#3C3C3C"/>
</svg>
