<svg width="115" height="26" viewBox="0 0 115 26" fill="none" xmlns="http://www.w3.org/2000/svg">
<g filter="url(#filter0_d_54_88)">
<path d="M7.288 0.431999C7.736 0.527999 7.96 0.751999 7.96 1.104L7.816 2.16V2.472C7.816 3.176 7.896 3.92 8.056 4.704H8.104C9.96 4.144 11.112 3.864 11.56 3.864C12.024 3.992 12.256 4.224 12.256 4.56C12.256 5.104 11.704 5.376 10.6 5.376L8.104 6.264C8.104 8.424 8.336 11.36 8.8 15.072C8.704 15.504 8.472 15.72 8.104 15.72H8.056C7.496 15.72 7.216 15 7.216 13.56C7.008 12.488 6.832 10.16 6.688 6.576H6.256C4.752 6.48 4 6.128 4 5.52C4 5.344 4.168 5.128 4.504 4.872H4.744L5.848 5.16H6.616L6.4 2.16C6.4 1.008 6.696 0.431999 7.288 0.431999ZM13.9953 1.752C14.4433 1.752 14.6673 2.296 14.6673 3.384L14.9553 7.512H15.0513L16.2513 7.056C17.5953 7.056 18.4113 8.432 18.6992 11.184C18.8112 11.968 18.8672 13.12 18.8672 14.64V16.584C18.8672 17.192 18.6433 17.496 18.1953 17.496H18.0993C17.6673 17.432 17.4513 17.2 17.4513 16.8V14.544C17.4513 10.928 17.0993 8.928 16.3953 8.544H16.2513C15.7713 8.544 15.4193 9.28 15.1953 10.752V12.096C15.1953 14.496 14.9953 15.696 14.5953 15.696L14.1393 15.744C13.6913 15.744 13.4673 15.08 13.4673 13.752C13.5153 12.344 13.6113 11.192 13.7553 10.296L13.2513 2.4C13.2513 1.984 13.4993 1.768 13.9953 1.752ZM22.1551 6.384C22.7951 6.4 23.8751 7.52 25.3951 9.744L25.4431 10.152C25.4431 10.6 24.3471 10.944 22.1551 11.184L22.0831 11.256V11.352C22.4191 12.792 22.7711 13.512 23.1391 13.512H23.4271C23.9391 13.512 24.7151 12.96 25.7551 11.856H25.8991C26.2191 11.856 26.4671 12.088 26.6431 12.552C26.6431 12.936 25.9711 13.6 24.6271 14.544C24.2751 14.752 23.8511 14.904 23.3551 15C22.0591 15 21.1551 13.784 20.6431 11.352C19.9071 11.24 19.5391 10.936 19.5391 10.44C19.5391 10.088 19.8111 9.856 20.3551 9.744V9.84L20.5951 9.744V9.144C20.5951 7.304 21.1151 6.384 22.1551 6.384ZM22.2991 8.112H22.0831L21.9871 9V9.744H22.0831C22.9791 9.712 23.4271 9.616 23.4271 9.456C23.0111 8.832 22.6351 8.384 22.2991 8.112ZM46.2843 0.672C46.5883 0.672 46.7883 0.92 46.8843 1.416C46.8843 1.704 46.3883 2.08 45.3963 2.544C44.5323 3.088 43.7643 4.392 43.0923 6.456C42.2923 9.8 41.8923 12.752 41.8923 15.312C41.6203 15.552 41.3643 15.672 41.1243 15.672C40.7243 15.672 40.3483 14.872 39.9963 13.272C37.5483 7.16 36.3243 3.784 36.3243 3.144C36.3243 2.824 36.5803 2.624 37.0923 2.544C37.5083 2.544 37.9083 3.368 38.2923 5.016L40.5963 10.944H40.6923C40.7883 10.944 40.9323 10.144 41.1243 8.544C41.7323 6.016 42.3323 4.272 42.9243 3.312C44.2523 1.552 45.3723 0.672 46.2843 0.672ZM49.5694 5.952C50.7534 5.952 51.6494 6.832 52.2574 8.592L52.3534 9.096C52.3534 10.808 51.5534 12.56 49.9534 14.352C49.3134 14.944 48.6654 15.24 48.0094 15.24C47.0494 15.24 46.3694 14.688 45.9694 13.584C45.8254 13.072 45.7534 12.624 45.7534 12.24V11.952C45.7534 9.424 46.6734 7.504 48.5134 6.192C48.8334 6.032 49.1854 5.952 49.5694 5.952ZM47.1694 12.192C47.1694 13.28 47.4494 13.824 48.0094 13.824C49.1774 13.824 50.1454 12.328 50.9134 9.336V8.88C50.6414 7.888 50.1374 7.392 49.4014 7.392C49.1134 7.392 48.9694 7.592 48.9694 7.992C48.9694 8.264 48.6494 8.48 48.0094 8.64C47.4494 9.584 47.1694 10.768 47.1694 12.192ZM54.7849 1.776C55.2329 1.936 55.4569 2.184 55.4569 2.52L55.6969 11.664V14.616C55.6969 15.16 55.4649 15.432 55.0009 15.432H54.6889C54.4009 15.24 54.2569 15.016 54.2569 14.76V11.976L54.0409 2.472C54.0409 2.072 54.2889 1.84 54.7849 1.776ZM58.3848 7.776L58.8168 7.536C59.2008 7.536 59.4808 7.768 59.6568 8.232C59.4008 9.416 59.2728 10.632 59.2728 11.88C59.2728 12.504 59.4568 13.184 59.8248 13.92H59.9688C60.4328 13.92 60.9848 12.088 61.6248 8.424C61.8488 8.232 62.0648 8.136 62.2728 8.136C62.7688 8.136 63.0168 9.016 63.0168 10.776C63.2248 12.712 63.4568 13.68 63.7128 13.68L64.0728 13.536C64.5368 13.712 64.7688 13.96 64.7688 14.28C64.4808 14.888 64.0808 15.192 63.5688 15.192C62.9928 15.192 62.4408 14.616 61.9128 13.464C61.2728 14.808 60.6248 15.48 59.9688 15.48C58.9928 15.48 58.3128 14.464 57.9288 12.432L57.8568 11.664V11.424C57.8568 10.144 58.0328 8.928 58.3848 7.776ZM68.3963 6.912C69.7563 7.024 70.4363 7.688 70.4363 8.904L70.4843 9.216L70.4363 12.96C70.4363 13.392 70.6843 13.976 71.1803 14.712V14.76C71.0523 15.224 70.8203 15.456 70.4843 15.456C69.4923 15.04 68.9963 14.16 68.9963 12.816V12.504L68.9243 12.456L68.9963 12.36V12.312L69.0683 9C69.0683 8.536 68.8683 8.304 68.4683 8.304H68.1803C67.3803 8.624 66.9803 10.376 66.9803 13.56C66.9803 14.664 66.7003 15.216 66.1403 15.216C65.7083 15.216 65.4843 14.944 65.4683 14.4V12C65.4683 8.896 65.7403 7.344 66.2843 7.344L66.5243 7.272L67.0283 7.344C67.4603 7.056 67.9163 6.912 68.3963 6.912ZM74.7646 0.431999C75.2126 0.527999 75.4366 0.751999 75.4366 1.104L75.2926 2.16V2.472C75.2926 3.176 75.3726 3.92 75.5326 4.704H75.5806C77.4366 4.144 78.5886 3.864 79.0366 3.864C79.5006 3.992 79.7326 4.224 79.7326 4.56C79.7326 5.104 79.1806 5.376 78.0766 5.376L75.5806 6.264C75.5806 8.424 75.8126 11.36 76.2766 15.072C76.1806 15.504 75.9486 15.72 75.5806 15.72H75.5326C74.9726 15.72 74.6926 15 74.6926 13.56C74.4846 12.488 74.3086 10.16 74.1646 6.576H73.7326C72.2286 6.48 71.4766 6.128 71.4766 5.52C71.4766 5.344 71.6446 5.128 71.9806 4.872H72.2206L73.3246 5.16H74.0926L73.8766 2.16C73.8766 1.008 74.1726 0.431999 74.7646 0.431999ZM82.6238 6.384C83.2638 6.4 84.3438 7.52 85.8638 9.744L85.9118 10.152C85.9118 10.6 84.8158 10.944 82.6238 11.184L82.5518 11.256V11.352C82.8878 12.792 83.2398 13.512 83.6078 13.512H83.8958C84.4078 13.512 85.1838 12.96 86.2238 11.856H86.3678C86.6878 11.856 86.9358 12.088 87.1118 12.552C87.1118 12.936 86.4398 13.6 85.0958 14.544C84.7438 14.752 84.3198 14.904 83.8238 15C82.5278 15 81.6238 13.784 81.1118 11.352C80.3758 11.24 80.0078 10.936 80.0078 10.44C80.0078 10.088 80.2798 9.856 80.8238 9.744V9.84L81.0638 9.744V9.144C81.0638 7.304 81.5838 6.384 82.6238 6.384ZM82.7678 8.112H82.5518L82.4558 9V9.744H82.5518C83.4478 9.712 83.8958 9.616 83.8958 9.456C83.4798 8.832 83.1038 8.384 82.7678 8.112ZM90.1941 6.384C90.8341 6.4 91.9141 7.52 93.4341 9.744L93.4821 10.152C93.4821 10.6 92.3861 10.944 90.1941 11.184L90.1221 11.256V11.352C90.4581 12.792 90.8101 13.512 91.1781 13.512H91.4661C91.9781 13.512 92.7541 12.96 93.7941 11.856H93.9381C94.2581 11.856 94.5061 12.088 94.6821 12.552C94.6821 12.936 94.0101 13.6 92.6661 14.544C92.3141 14.752 91.8901 14.904 91.3941 15C90.0981 15 89.1941 13.784 88.6821 11.352C87.9461 11.24 87.5781 10.936 87.5781 10.44C87.5781 10.088 87.8501 9.856 88.3941 9.744V9.84L88.6341 9.744V9.144C88.6341 7.304 89.1541 6.384 90.1941 6.384ZM90.3381 8.112H90.1221L90.0261 9V9.744H90.1221C91.0181 9.712 91.4661 9.616 91.4661 9.456C91.0501 8.832 90.6741 8.384 90.3381 8.112ZM98.7724 5.544C99.7804 5.544 100.38 6.248 100.572 7.656V7.872C100.572 9.424 99.7724 10.848 98.1724 12.144C99.1004 13.056 100.724 13.512 103.044 13.512C103.396 13.624 103.572 13.872 103.572 14.256C103.572 14.688 103.292 14.904 102.732 14.904C101.164 14.904 99.5164 14.504 97.7884 13.704V14.4C97.7884 16.048 97.4364 16.872 96.7324 16.872C96.2364 16.872 95.9884 15.92 95.9884 14.016V12.144L95.9164 11.472L96.0844 10.704L95.9164 8.4V8.304C95.9164 7.872 96.1404 7.576 96.5884 7.416C97.2124 6.168 97.9404 5.544 98.7724 5.544ZM97.5724 10.8C98.0364 10.8 98.5564 9.968 99.1324 8.304V7.272L98.8444 6.96H98.6284C97.9244 7.44 97.5724 8.72 97.5724 10.8ZM109.194 5.28C109.626 5.28 109.922 6.008 110.082 7.464C109.922 7.864 109.658 8.064 109.29 8.064C109.034 8.016 108.778 7.72 108.522 7.176L108.09 7.032C107.338 7.032 106.658 7.528 106.05 8.52V8.736C106.05 8.976 107.178 9.376 109.434 9.936C110.378 10.496 110.85 11.176 110.85 11.976C110.85 13.288 109.794 14.408 107.682 15.336L106.794 15.48C105.45 15.336 104.778 14.664 104.778 13.464V13.392C104.778 13.008 105.026 12.784 105.522 12.72C105.906 12.72 106.162 13.12 106.29 13.92L106.482 14.064H106.89C107.802 14.064 108.65 13.44 109.434 12.192V11.88C109.434 11.4 108.386 10.952 106.29 10.536C105.186 10.088 104.634 9.464 104.634 8.664C104.634 7.624 105.506 6.648 107.25 5.736C108.018 5.64 108.666 5.488 109.194 5.28Z" fill="#2583DB"/>
</g>
<defs>
<filter id="filter0_d_54_88" x="0" y="0.432007" width="114.85" height="25.064" filterUnits="userSpaceOnUse" color-interpolation-filters="sRGB">
<feFlood flood-opacity="0" result="BackgroundImageFix"/>
<feColorMatrix in="SourceAlpha" type="matrix" values="0 0 0 0 0 0 0 0 0 0 0 0 0 0 0 0 0 0 127 0" result="hardAlpha"/>
<feOffset dy="4"/>
<feGaussianBlur stdDeviation="2"/>
<feComposite in2="hardAlpha" operator="out"/>
<feColorMatrix type="matrix" values="0 0 0 0 0 0 0 0 0 0 0 0 0 0 0 0 0 0 0.25 0"/>
<feBlend mode="normal" in2="BackgroundImageFix" result="effect1_dropShadow_54_88"/>
<feBlend mode="normal" in="SourceGraphic" in2="effect1_dropShadow_54_88" result="shape"/>
</filter>
</defs>
</svg>
