<svg width="150" height="46" viewBox="0 0 285 46" fill="none" xmlns="http://www.w3.org/2000/svg">
<path d="M8.768 0.151997C9.96267 0.407998 10.56 1.00533 10.56 1.944L10.176 4.76V5.592C10.176 7.46933 10.3893 9.45333 10.816 11.544H10.944C15.8933 10.0507 18.9653 9.304 20.16 9.304C21.3973 9.64533 22.016 10.264 22.016 11.16C22.016 12.6107 20.544 13.336 17.6 13.336L10.944 15.704C10.944 21.464 11.5627 29.2933 12.8 39.192C12.544 40.344 11.9253 40.92 10.944 40.92H10.816C9.32267 40.92 8.576 39 8.576 35.16C8.02133 32.3013 7.552 26.0933 7.168 16.536H6.016C2.00533 16.28 0 15.3413 0 13.72C0 13.2507 0.448 12.6747 1.344 11.992H1.984L4.928 12.76H6.976L6.4 4.76C6.4 1.688 7.18933 0.151997 8.768 0.151997ZM26.654 3.672C27.8487 3.672 28.446 5.12266 28.446 8.024L29.214 19.032H29.47L32.67 17.816C36.254 17.816 38.43 21.4853 39.198 28.824C39.4967 30.9147 39.646 33.9867 39.646 38.04V43.224C39.646 44.8453 39.0487 45.656 37.854 45.656H37.598C36.446 45.4853 35.87 44.8667 35.87 43.8V37.784C35.87 28.1413 34.9313 22.808 33.054 21.784H32.67C31.39 21.784 30.4513 23.7467 29.854 27.672V31.256C29.854 37.656 29.3207 40.856 28.254 40.856L27.038 40.984C25.8433 40.984 25.246 39.2133 25.246 35.672C25.374 31.9173 25.63 28.8453 26.014 26.456L24.67 5.4C24.67 4.29067 25.3313 3.71467 26.654 3.672ZM48.4135 16.024C50.1202 16.0667 53.0002 19.0533 57.0535 24.984L57.1815 26.072C57.1815 27.2667 54.2588 28.184 48.4135 28.824L48.2215 29.016V29.272C49.1175 33.112 50.0562 35.032 51.0375 35.032H51.8055C53.1708 35.032 55.2402 33.56 58.0135 30.616H58.3975C59.2508 30.616 59.9122 31.2347 60.3815 32.472C60.3815 33.496 58.5895 35.2667 55.0055 37.784C54.0668 38.3387 52.9362 38.744 51.6135 39C48.1575 39 45.7468 35.7573 44.3815 29.272C42.4188 28.9733 41.4375 28.1627 41.4375 26.84C41.4375 25.9013 42.1628 25.2827 43.6135 24.984V25.24L44.2535 24.984V23.384C44.2535 18.4773 45.6402 16.024 48.4135 16.024ZM48.7975 20.632H48.2215L47.9655 23V24.984H48.2215C50.6108 24.8987 51.8055 24.6427 51.8055 24.216C50.6962 22.552 49.6935 21.3573 48.7975 20.632ZM112.758 0.792C113.569 0.792 114.102 1.45333 114.358 2.776C114.358 3.544 113.035 4.54666 110.39 5.784C108.086 7.23466 106.038 10.712 104.246 16.216C102.113 25.1333 101.046 33.0053 101.046 39.832C100.321 40.472 99.638 40.792 98.998 40.792C97.9313 40.792 96.9287 38.6587 95.99 34.392C89.462 18.0933 86.198 9.09067 86.198 7.384C86.198 6.53067 86.8807 5.99733 88.246 5.784C89.3553 5.784 90.422 7.98133 91.446 12.376L97.59 28.184H97.846C98.102 28.184 98.486 26.0507 98.998 21.784C100.619 15.0427 102.219 10.392 103.798 7.832C107.339 3.13867 110.326 0.792 112.758 0.792ZM121.519 14.872C124.676 14.872 127.065 17.2187 128.687 21.912L128.943 23.256C128.943 27.8213 126.809 32.4933 122.543 37.272C120.836 38.8507 119.108 39.64 117.359 39.64C114.799 39.64 112.985 38.168 111.919 35.224C111.535 33.8587 111.343 32.664 111.343 31.64V30.872C111.343 24.1307 113.796 19.0107 118.703 15.512C119.556 15.0853 120.495 14.872 121.519 14.872ZM115.119 31.512C115.119 34.4133 115.865 35.864 117.359 35.864C120.473 35.864 123.055 31.8747 125.103 23.896V22.68C124.377 20.0347 123.033 18.712 121.071 18.712C120.303 18.712 119.919 19.2453 119.919 20.312C119.919 21.0373 119.065 21.6133 117.359 22.04C115.865 24.5573 115.119 27.7147 115.119 31.512ZM135.427 3.736C136.621 4.16267 137.219 4.824 137.219 5.72L137.859 30.104V37.976C137.859 39.4267 137.24 40.152 136.003 40.152H135.171C134.403 39.64 134.019 39.0427 134.019 38.36V30.936L133.443 5.592C133.443 4.52533 134.104 3.90666 135.427 3.736ZM145.026 19.736L146.178 19.096C147.202 19.096 147.949 19.7147 148.418 20.952C147.735 24.1093 147.394 27.352 147.394 30.68C147.394 32.344 147.885 34.1573 148.866 36.12H149.25C150.487 36.12 151.959 31.2347 153.666 21.464C154.263 20.952 154.839 20.696 155.394 20.696C156.717 20.696 157.378 23.0427 157.378 27.736C157.933 32.8987 158.551 35.48 159.234 35.48L160.194 35.096C161.431 35.5653 162.05 36.2267 162.05 37.08C161.282 38.7013 160.215 39.512 158.85 39.512C157.314 39.512 155.842 37.976 154.434 34.904C152.727 38.488 150.999 40.28 149.25 40.28C146.647 40.28 144.834 37.5707 143.81 32.152L143.618 30.104V29.464C143.618 26.0507 144.087 22.808 145.026 19.736ZM171.724 17.432C175.35 17.7307 177.164 19.5013 177.164 22.744L177.292 23.576L177.164 33.56C177.164 34.712 177.825 36.2693 179.148 38.232V38.36C178.806 39.5973 178.188 40.216 177.292 40.216C174.646 39.1067 173.324 36.76 173.324 33.176V32.344L173.132 32.216L173.324 31.96V31.832L173.516 23C173.516 21.7627 172.982 21.144 171.916 21.144H171.148C169.014 21.9973 167.948 26.6693 167.948 35.16C167.948 38.104 167.201 39.576 165.708 39.576C164.556 39.576 163.958 38.8507 163.916 37.4V31C163.916 22.7227 164.641 18.584 166.092 18.584L166.732 18.392L168.076 18.584C169.228 17.816 170.444 17.432 171.724 17.432ZM188.706 0.151997C189.9 0.407998 190.498 1.00533 190.498 1.944L190.114 4.76V5.592C190.114 7.46933 190.327 9.45333 190.754 11.544H190.882C195.831 10.0507 198.903 9.304 200.098 9.304C201.335 9.64533 201.954 10.264 201.954 11.16C201.954 12.6107 200.482 13.336 197.538 13.336L190.882 15.704C190.882 21.464 191.5 29.2933 192.738 39.192C192.482 40.344 191.863 40.92 190.882 40.92H190.754C189.26 40.92 188.514 39 188.514 35.16C187.959 32.3013 187.49 26.0933 187.106 16.536H185.954C181.943 16.28 179.938 15.3413 179.938 13.72C179.938 13.2507 180.386 12.6747 181.282 11.992H181.922L184.866 12.76H186.914L186.338 4.76C186.338 1.688 187.127 0.151997 188.706 0.151997ZM209.664 16.024C211.37 16.0667 214.25 19.0533 218.304 24.984L218.432 26.072C218.432 27.2667 215.509 28.184 209.664 28.824L209.472 29.016V29.272C210.368 33.112 211.306 35.032 212.288 35.032H213.056C214.421 35.032 216.49 33.56 219.264 30.616H219.648C220.501 30.616 221.162 31.2347 221.632 32.472C221.632 33.496 219.84 35.2667 216.256 37.784C215.317 38.3387 214.186 38.744 212.864 39C209.408 39 206.997 35.7573 205.632 29.272C203.669 28.9733 202.688 28.1627 202.688 26.84C202.688 25.9013 203.413 25.2827 204.864 24.984V25.24L205.504 24.984V23.384C205.504 18.4773 206.89 16.024 209.664 16.024ZM210.048 20.632H209.472L209.216 23V24.984H209.472C211.861 24.8987 213.056 24.6427 213.056 24.216C211.946 22.552 210.944 21.3573 210.048 20.632ZM229.851 16.024C231.558 16.0667 234.438 19.0533 238.491 24.984L238.619 26.072C238.619 27.2667 235.696 28.184 229.851 28.824L229.659 29.016V29.272C230.555 33.112 231.494 35.032 232.475 35.032H233.243C234.608 35.032 236.678 33.56 239.451 30.616H239.835C240.688 30.616 241.35 31.2347 241.819 32.472C241.819 33.496 240.027 35.2667 236.443 37.784C235.504 38.3387 234.374 38.744 233.051 39C229.595 39 227.184 35.7573 225.819 29.272C223.856 28.9733 222.875 28.1627 222.875 26.84C222.875 25.9013 223.6 25.2827 225.051 24.984V25.24L225.691 24.984V23.384C225.691 18.4773 227.078 16.024 229.851 16.024ZM230.235 20.632H229.659L229.403 23V24.984H229.659C232.048 24.8987 233.243 24.6427 233.243 24.216C232.134 22.552 231.131 21.3573 230.235 20.632ZM252.727 13.784C255.415 13.784 257.015 15.6613 257.527 19.416V19.992C257.527 24.1307 255.393 27.928 251.127 31.384C253.601 33.816 257.932 35.032 264.119 35.032C265.057 35.3307 265.527 35.992 265.527 37.016C265.527 38.168 264.78 38.744 263.287 38.744C259.105 38.744 254.711 37.6773 250.103 35.544V37.4C250.103 41.7947 249.164 43.992 247.286 43.992C245.964 43.992 245.303 41.4533 245.303 36.376V31.384L245.111 29.592L245.559 27.544L245.111 21.4V21.144C245.111 19.992 245.708 19.2027 246.903 18.776C248.567 15.448 250.508 13.784 252.727 13.784ZM249.527 27.8C250.764 27.8 252.151 25.5813 253.687 21.144V18.392L252.919 17.56H252.343C250.465 18.84 249.527 22.2533 249.527 27.8ZM280.518 13.08C281.67 13.08 282.459 15.0213 282.885 18.904C282.459 19.9707 281.755 20.504 280.774 20.504C280.091 20.376 279.408 19.5867 278.726 18.136L277.574 17.752C275.568 17.752 273.755 19.0747 272.134 21.72V22.296C272.134 22.936 275.142 24.0027 281.158 25.496C283.675 26.9893 284.934 28.8027 284.934 30.936C284.934 34.4347 282.118 37.4213 276.486 39.896L274.118 40.28C270.534 39.896 268.742 38.104 268.742 34.904V34.712C268.742 33.688 269.403 33.0907 270.726 32.92C271.75 32.92 272.432 33.9867 272.774 36.12L273.286 36.504H274.374C276.806 36.504 279.067 34.84 281.158 31.512V30.68C281.158 29.4 278.363 28.2053 272.774 27.096C269.83 25.9013 268.358 24.2373 268.358 22.104C268.358 19.3307 270.683 16.728 275.334 14.296C277.382 14.04 279.11 13.6347 280.518 13.08Z" fill="#2583DB"/>
</svg>
