<svg width="21" height="24" viewBox="0 0 21 24" fill="none" xmlns="http://www.w3.org/2000/svg">
<path d="M8.60969 0C7.03125 0 5.7398 1.34641 5.7398 2.99202H2.8699C1.29145 2.99202 0 4.33843 0 5.98404H20.0893C20.0893 4.33843 18.7978 2.99202 17.2194 2.99202H14.3495C14.3495 1.34641 13.058 0 11.4796 0H8.60969ZM2.8699 8.97606V23.3677C2.8699 23.6968 3.09949 23.9362 3.41518 23.9362H16.7028C17.0185 23.9362 17.2481 23.6968 17.2481 23.3677V8.97606H14.3782V19.4481C14.3782 20.2859 13.7468 20.9441 12.9432 20.9441C12.1397 20.9441 11.5083 20.2859 11.5083 19.4481V8.97606H8.63839V19.4481C8.63839 20.2859 8.00702 20.9441 7.20344 20.9441C6.39987 20.9441 5.7685 20.2859 5.7685 19.4481V8.97606H2.8986H2.8699Z" fill="black"/>
</svg>
