<svg width="156" height="25" viewBox="0 0 156 25" fill="none" xmlns="http://www.w3.org/2000/svg">
<path d="M19.6364 6.54545L10.8636 24H3.59091L0.636364 6.54545H7L7.90909 18.0909H8.09091L12.8182 6.54545H19.6364ZM26.3438 24.3182C24.4498 24.3182 22.8892 23.9432 21.6619 23.1932C20.4422 22.4356 19.5862 21.3826 19.0938 20.0341C18.6013 18.678 18.5028 17.1061 18.7983 15.3182C19.0938 13.5303 19.7112 11.9621 20.6506 10.6136C21.59 9.25758 22.7983 8.20454 24.2756 7.45454C25.7528 6.69697 27.4422 6.31818 29.3438 6.31818C31.2301 6.31818 32.7831 6.69697 34.0028 7.45454C35.2301 8.20454 36.09 9.25758 36.5824 10.6136C37.0824 11.9621 37.1847 13.5303 36.8892 15.3182C36.5938 17.1061 35.9725 18.678 35.0256 20.0341C34.0786 21.3826 32.8665 22.4356 31.3892 23.1932C29.9195 23.9432 28.2377 24.3182 26.3438 24.3182ZM27.1165 19.6818C27.6619 19.6818 28.1581 19.5038 28.6051 19.1477C29.0597 18.7917 29.446 18.2841 29.7642 17.625C30.09 16.9659 30.3286 16.1818 30.4801 15.2727C30.6316 14.3561 30.6544 13.572 30.5483 12.9205C30.4422 12.2614 30.2225 11.7538 29.8892 11.3977C29.5559 11.0417 29.1165 10.8636 28.571 10.8636C28.0256 10.8636 27.5256 11.0417 27.071 11.3977C26.6165 11.7538 26.2301 12.2614 25.9119 12.9205C25.5938 13.572 25.3589 14.3561 25.2074 15.2727C25.0559 16.1818 25.0294 16.9659 25.1278 17.625C25.2339 18.2841 25.4536 18.7917 25.7869 19.1477C26.1278 19.5038 26.571 19.6818 27.1165 19.6818ZM48.1165 0.727272L44.2528 24H37.9801L41.8438 0.727272H48.1165ZM60.0398 16.3636L61.6761 6.54545H67.9489L65.0398 24H59.0852L59.6307 20.6818H59.4489C58.911 21.7955 58.108 22.6667 57.0398 23.2955C55.9792 23.9167 54.7973 24.2273 53.4943 24.2273C52.2746 24.2273 51.2557 23.947 50.4375 23.3864C49.6193 22.8258 49.0398 22.053 48.6989 21.0682C48.358 20.0833 48.2898 18.9545 48.4943 17.6818L50.358 6.54545H56.6307L54.9943 16.3636C54.8655 17.2273 54.9754 17.9053 55.3239 18.3977C55.6799 18.8902 56.2519 19.1364 57.0398 19.1364C57.5625 19.1364 58.0322 19.0265 58.4489 18.8068C58.8731 18.5795 59.2216 18.2614 59.4943 17.8523C59.7746 17.4356 59.9564 16.9394 60.0398 16.3636ZM76.1847 14.1818L74.5483 24H68.2756L71.1847 6.54545H77.1392L76.5938 9.86364H76.7756C77.3286 8.75 78.1354 7.88258 79.196 7.26136C80.2642 6.63258 81.4422 6.31818 82.7301 6.31818C83.965 6.31818 84.9915 6.59848 85.8097 7.15909C86.6278 7.7197 87.2074 8.49242 87.5483 9.47727C87.8892 10.4621 87.9498 11.5909 87.7301 12.8636L85.8665 24H79.5938L81.2301 14.1818C81.3741 13.3182 81.268 12.6402 80.9119 12.1477C80.5634 11.6553 79.9877 11.4091 79.1847 11.4091C78.6771 11.4091 78.2112 11.5227 77.7869 11.75C77.3703 11.9697 77.0218 12.2879 76.7415 12.7045C76.4688 13.1136 76.2831 13.6061 76.1847 14.1818ZM102.236 6.54545L101.463 11.0909H89.9631L90.7358 6.54545H102.236ZM93.6449 2.36364H99.9176L97.2585 18.3864C97.2206 18.6288 97.2282 18.8333 97.2812 19C97.3343 19.1591 97.4403 19.2803 97.5994 19.3636C97.7661 19.4394 97.9858 19.4773 98.2585 19.4773C98.4403 19.4773 98.6638 19.4545 98.929 19.4091C99.1941 19.3561 99.3949 19.3182 99.5312 19.2955L99.7131 23.7045C99.3949 23.7955 98.9669 23.8977 98.429 24.0114C97.8987 24.1326 97.2813 24.2121 96.5767 24.25C95.107 24.3182 93.91 24.1629 92.9858 23.7841C92.0691 23.4053 91.4328 22.8144 91.0767 22.0114C90.7282 21.2008 90.6676 20.1894 90.8949 18.9773L93.6449 2.36364ZM110.017 24.3182C108.153 24.3182 106.608 23.9621 105.381 23.25C104.153 22.5303 103.29 21.5 102.79 20.1591C102.29 18.8106 102.199 17.197 102.517 15.3182C102.82 13.5152 103.445 11.9394 104.392 10.5909C105.347 9.24242 106.547 8.19318 107.994 7.44318C109.449 6.69318 111.078 6.31818 112.881 6.31818C114.199 6.31818 115.354 6.52273 116.347 6.93182C117.347 7.34091 118.161 7.93561 118.79 8.71591C119.419 9.49621 119.843 10.4394 120.062 11.5455C120.29 12.6439 120.29 13.8864 120.062 15.2727L119.835 16.7273H104.244L104.79 13.2727H114.608C114.684 12.7727 114.634 12.3333 114.46 11.9545C114.294 11.5682 114.025 11.2689 113.653 11.0568C113.29 10.8371 112.85 10.7273 112.335 10.7273C111.82 10.7273 111.335 10.8371 110.881 11.0568C110.434 11.2765 110.051 11.5833 109.733 11.9773C109.422 12.3712 109.214 12.8333 109.108 13.3636L108.426 17C108.335 17.5606 108.369 18.0606 108.528 18.5C108.688 18.9394 108.964 19.2841 109.358 19.5341C109.752 19.7841 110.259 19.9091 110.881 19.9091C111.305 19.9091 111.706 19.8523 112.085 19.7386C112.472 19.6174 112.813 19.4432 113.108 19.2159C113.411 18.9811 113.653 18.697 113.835 18.3636H119.562C119.153 19.5758 118.506 20.6288 117.619 21.5227C116.741 22.4091 115.657 23.0985 114.369 23.5909C113.089 24.0758 111.638 24.3182 110.017 24.3182ZM129.486 24.3182C127.622 24.3182 126.077 23.9621 124.849 23.25C123.622 22.5303 122.759 21.5 122.259 20.1591C121.759 18.8106 121.668 17.197 121.986 15.3182C122.289 13.5152 122.914 11.9394 123.861 10.5909C124.815 9.24242 126.016 8.19318 127.463 7.44318C128.918 6.69318 130.546 6.31818 132.349 6.31818C133.668 6.31818 134.823 6.52273 135.815 6.93182C136.815 7.34091 137.63 7.93561 138.259 8.71591C138.887 9.49621 139.312 10.4394 139.531 11.5455C139.759 12.6439 139.759 13.8864 139.531 15.2727L139.304 16.7273H123.713L124.259 13.2727H134.077C134.152 12.7727 134.103 12.3333 133.929 11.9545C133.762 11.5682 133.493 11.2689 133.122 11.0568C132.759 10.8371 132.319 10.7273 131.804 10.7273C131.289 10.7273 130.804 10.8371 130.349 11.0568C129.902 11.2765 129.52 11.5833 129.202 11.9773C128.891 12.3712 128.683 12.8333 128.577 13.3636L127.895 17C127.804 17.5606 127.838 18.0606 127.997 18.5C128.156 18.9394 128.433 19.2841 128.827 19.5341C129.221 19.7841 129.728 19.9091 130.349 19.9091C130.774 19.9091 131.175 19.8523 131.554 19.7386C131.94 19.6174 132.281 19.4432 132.577 19.2159C132.88 18.9811 133.122 18.697 133.304 18.3636H139.031C138.622 19.5758 137.974 20.6288 137.088 21.5227C136.209 22.4091 135.126 23.0985 133.838 23.5909C132.558 24.0758 131.107 24.3182 129.486 24.3182ZM140.636 24L143.545 6.54545H149.636L149.091 9.86364H149.273C149.795 8.63636 150.451 7.73864 151.239 7.17045C152.027 6.60227 152.886 6.31818 153.818 6.31818C154.091 6.31818 154.352 6.34091 154.602 6.38636C154.86 6.42424 155.114 6.47727 155.364 6.54545L154.455 11.9091C154.159 11.7955 153.792 11.7159 153.352 11.6705C152.913 11.6174 152.523 11.5909 152.182 11.5909C151.576 11.5909 151.008 11.7311 150.477 12.0114C149.955 12.2841 149.508 12.6705 149.136 13.1705C148.773 13.6629 148.53 14.2424 148.409 14.9091L146.909 24H140.636Z" fill="#1876FB"/>
</svg>
