<svg width="50" height="49" viewBox="0 0 38 37" fill="none" xmlns="http://www.w3.org/2000/svg">
<path d="M37.5 18.5C37.5 28.4286 29.2299 36.5 19 36.5C8.77008 36.5 0.5 28.4286 0.5 18.5C0.5 8.57136 8.77008 0.5 19 0.5C29.2299 0.5 37.5 8.57136 37.5 18.5Z" stroke="#515151"/>
<path d="M18.9168 8C16.4647 8 14.4584 10.0033 14.4584 12.4717C14.4584 14.9401 16.4647 16.9434 18.9168 16.9434C21.369 16.9434 23.3753 14.9401 23.3753 12.4717C23.3753 10.0033 21.369 8 18.9168 8ZM14.2578 16.9434C11.8948 17.0329 10 18.589 10 20.5208V22.3095H27.8337V20.5208C27.8337 18.589 25.9611 17.0329 23.5759 16.9434C22.3721 18.0345 20.7225 18.7321 18.9168 18.7321C17.1112 18.7321 15.4616 18.0345 14.2578 16.9434Z" fill="#999999"/>
<path d="M11.9322 23.9091V29H11.6289V23.9091H11.9322ZM14.6069 29.0795C14.292 29.0795 14.012 28.995 13.7667 28.826C13.5214 28.6553 13.3284 28.4208 13.1875 28.1225C13.0466 27.8242 12.9762 27.4845 12.9762 27.1033C12.9762 26.7205 13.0466 26.3808 13.1875 26.0842C13.3284 25.7859 13.5214 25.5514 13.7667 25.3807C14.012 25.21 14.292 25.1246 14.6069 25.1246C14.9218 25.1246 15.2018 25.21 15.4471 25.3807C15.6924 25.5514 15.8854 25.7859 16.0263 26.0842C16.1671 26.3825 16.2376 26.7222 16.2376 27.1033C16.2376 27.4845 16.1671 27.8242 16.0263 28.1225C15.8854 28.4208 15.6924 28.6553 15.4471 28.826C15.2018 28.995 14.9218 29.0795 14.6069 29.0795ZM14.6069 28.7987C14.8737 28.7987 15.1065 28.7232 15.3054 28.5724C15.5059 28.4216 15.6609 28.2178 15.7702 27.9609C15.8813 27.7041 15.9368 27.4182 15.9368 27.1033C15.9368 26.7885 15.8813 26.5034 15.7702 26.2482C15.6592 25.9914 15.5043 25.7875 15.3054 25.6367C15.1065 25.4843 14.8737 25.408 14.6069 25.408C14.3401 25.408 14.1072 25.4843 13.9084 25.6367C13.7095 25.7875 13.5546 25.9914 13.4435 26.2482C13.3325 26.5034 13.277 26.7885 13.277 27.1033C13.277 27.4182 13.3317 27.7041 13.4411 27.9609C13.5521 28.2178 13.707 28.4216 13.9059 28.5724C14.1064 28.7232 14.3401 28.7987 14.6069 28.7987ZM18.6594 30.5114C18.4224 30.5114 18.2094 30.4799 18.0205 30.4169C17.8316 30.3556 17.6708 30.2678 17.5383 30.1534C17.4073 30.0391 17.3071 29.9032 17.2375 29.7457L17.491 29.5966C17.5474 29.7192 17.6278 29.8286 17.7322 29.9247C17.8366 30.0208 17.9658 30.0962 18.1199 30.1509C18.2757 30.2056 18.4555 30.233 18.6594 30.233C19.0273 30.233 19.3181 30.1377 19.5319 29.9471C19.7473 29.7582 19.855 29.4682 19.855 29.0771V28.1275H19.8252C19.7672 28.2932 19.681 28.4407 19.5667 28.57C19.454 28.6976 19.3156 28.7978 19.1515 28.8707C18.9875 28.9437 18.801 28.9801 18.5922 28.9801C18.2906 28.9801 18.0255 28.9022 17.7968 28.7464C17.5681 28.5907 17.3899 28.3719 17.2623 28.0902C17.1347 27.8068 17.0709 27.4737 17.0709 27.0909C17.0709 26.7081 17.1331 26.3692 17.2574 26.0742C17.3833 25.7776 17.5606 25.5456 17.7893 25.3782C18.018 25.2092 18.2865 25.1246 18.5947 25.1246C18.8151 25.1246 19.0057 25.1669 19.1665 25.2514C19.3289 25.3343 19.4648 25.4445 19.5741 25.582C19.6835 25.7196 19.768 25.8704 19.8277 26.0344H19.8625V25.1818H20.1558V29.0895C20.1558 29.4077 20.0928 29.672 19.9669 29.8825C19.8426 30.0929 19.6678 30.2504 19.4424 30.3548C19.2187 30.4592 18.9577 30.5114 18.6594 30.5114ZM18.6196 28.6992C18.8748 28.6992 19.0944 28.6346 19.2783 28.5053C19.4639 28.3744 19.6064 28.1888 19.7059 27.9485C19.807 27.7066 19.8575 27.4199 19.8575 27.0884C19.8575 26.7669 19.8086 26.4794 19.7108 26.2259C19.6131 25.9723 19.4714 25.7726 19.2858 25.6268C19.1002 25.4809 18.8781 25.408 18.6196 25.408C18.3561 25.408 18.1315 25.4826 17.9459 25.6317C17.7603 25.7792 17.6178 25.9798 17.5184 26.2333C17.4206 26.4869 17.3717 26.7719 17.3717 27.0884C17.3717 27.4066 17.4214 27.6867 17.5209 27.9286C17.6203 28.1689 17.7628 28.3578 17.9484 28.4954C18.134 28.6313 18.3577 28.6992 18.6196 28.6992ZM21.4466 29V25.1818H21.7473V29H21.4466ZM21.5982 24.5057C21.5319 24.5057 21.4739 24.4825 21.4242 24.4361C21.3761 24.3897 21.3521 24.3333 21.3521 24.267C21.3521 24.2008 21.3761 24.1444 21.4242 24.098C21.4722 24.0516 21.5302 24.0284 21.5982 24.0284C21.6645 24.0284 21.7217 24.0516 21.7697 24.098C21.8194 24.1444 21.8443 24.2008 21.8443 24.267C21.8443 24.3333 21.8203 24.3897 21.7722 24.4361C21.7241 24.4825 21.6661 24.5057 21.5982 24.5057ZM23.3208 26.5241V29H23.0176V25.1818H23.3134V25.7859H23.3432C23.4327 25.5887 23.5761 25.4304 23.7733 25.3111C23.9705 25.1918 24.205 25.1321 24.4767 25.1321C24.7336 25.1321 24.959 25.1868 25.1529 25.2962C25.3484 25.4055 25.5009 25.5613 25.6103 25.7635C25.7213 25.964 25.7768 26.2035 25.7768 26.4819V29H25.4735V26.4943C25.4735 26.1695 25.3766 25.9085 25.1827 25.7113C24.9905 25.5124 24.7361 25.413 24.4196 25.413C24.2074 25.413 24.0185 25.4594 23.8528 25.5522C23.6871 25.645 23.557 25.7751 23.4625 25.9425C23.3681 26.1082 23.3208 26.3021 23.3208 26.5241Z" fill="#3C3C3C"/>
</svg>
