<svg width="80" height="80" viewBox="0 0 80 80" fill="none" xmlns="http://www.w3.org/2000/svg">
<rect width="80" height="80" rx="3" fill="#EFEFEF"/>
<path d="M10.706 36.568H3.001V35.165H19.814V36.568H12.086V48.735H10.706V36.568ZM13.351 37.856H21.079V33.877H1.736V37.856H9.441V50.023H13.351V37.856ZM1.161 38.431V33.302H21.654L23.885 35.671V40.662H16.157V52.829H11.235L8.866 50.598V40.662H3.53L1.161 38.431ZM37.9355 48.735C36.3102 46.4503 34.6925 44.1887 33.0825 41.95C31.4725 39.7113 29.8548 37.4497 28.2295 35.165H30.0695L38.5335 47.033C39.9288 45.055 41.3088 43.0847 42.6735 41.122C44.0535 39.144 45.4335 37.1583 46.8135 35.165H48.5385L39.0395 48.735H37.9355ZM46.1235 33.877C44.8508 35.717 43.5858 37.5493 42.3285 39.374C41.0712 41.1987 39.7908 43.0233 38.4875 44.848L30.6905 33.877H25.8145L37.3145 50.023H39.7295L50.9995 33.877H46.1235ZM54.2655 35.671L42.3055 52.829H39.3385L37.0155 50.598L24.6875 33.302H31.4495L33.2665 35.671L38.7635 43.468C39.2388 42.8087 39.7142 42.134 40.1895 41.444C40.6802 40.7387 41.2015 39.9873 41.7535 39.19C42.3208 38.3773 42.9342 37.4957 43.5935 36.545C44.2528 35.579 44.9965 34.498 45.8245 33.302H52.0805L54.2655 35.671ZM64.5673 36.568H56.8623V35.165H73.6753V36.568H65.9473V48.735H64.5673V36.568ZM67.2123 37.856H74.9403V33.877H55.5973V37.856H63.3023V50.023H67.2123V37.856ZM55.0223 38.431V33.302H75.5153L77.7463 35.671V40.662H70.0183V52.829H65.0963L62.7273 50.598V40.662H57.3913L55.0223 38.431Z" fill="#2583DB"/>
</svg>
